<svg width="16" height="28" viewBox="0 0 16 28" fill="none" xmlns="http://www.w3.org/2000/svg">
<g clip-path="url(#clip0)">
<path d="M11.8125 25.375H9.625V18.9662C13.3695 18.0972 16.0809 14.5961 15.7172 10.5355L14.8449 0.795703C14.8045 0.345078 14.432 0 13.9858 0H1.76422C1.31852 0 0.945549 0.345078 0.905627 0.795703L0.0328143 10.5361C-0.330858 14.5966 2.38055 18.0977 6.125 18.9667V25.375H3.9375C2.72946 25.375 1.75 26.3545 1.75 27.5625C1.75 27.8042 1.94578 28 2.1875 28H13.5625C13.8042 28 14 27.8042 14 27.5625C14 26.3545 13.0206 25.375 11.8125 25.375Z" fill="#CBCBCB"/>
</g>
<defs>
<clipPath id="clip0">
<rect width="15.75" height="28" fill="white"/>
</clipPath>
</defs>
</svg>
