<svg width="28" height="28" viewBox="0 0 28 28" fill="none" xmlns="http://www.w3.org/2000/svg">
<g clip-path="url(#clip0)">
<path d="M12.3255 12.7624C11.6419 13.446 11.6419 14.554 12.3255 15.237C13.0085 15.9206 14.117 15.9206 14.8001 15.237C15.4837 14.5534 15.4837 13.4455 14.8001 12.7624C14.1165 12.0794 13.0085 12.0794 12.3255 12.7624ZM13.5625 0.4375C6.07195 0.4375 0 6.50945 0 14C0 21.4905 6.07195 27.5625 13.5625 27.5625C21.053 27.5625 27.125 21.4905 27.125 14C27.125 6.50945 21.053 0.4375 13.5625 0.4375ZM20.4608 8.53398L16.853 16.4281C16.6785 16.8099 16.3724 17.116 15.9906 17.2905L8.09703 20.8983C7.18648 21.3145 6.24805 20.376 6.66422 19.4655L10.2725 11.5713C10.447 11.1896 10.7532 10.8834 11.1349 10.7089L19.0285 7.10117C19.9391 6.68555 20.877 7.62344 20.4608 8.53398Z" fill="#FA4A0C"/>
</g>
<defs>
<clipPath id="clip0">
<rect width="27.125" height="28" fill="white"/>
</clipPath>
</defs>
</svg>
