<svg width="32" height="28" viewBox="0 0 32 28" fill="none" xmlns="http://www.w3.org/2000/svg">
<g clip-path="url(#clip0)">
<path d="M15.3991 8.10798L5.27273 16.4123V25.375C5.27273 25.6071 5.36531 25.8296 5.53012 25.9937C5.69492 26.1578 5.91845 26.25 6.15151 26.25L12.3063 26.2342C12.5386 26.233 12.761 26.1403 12.9249 25.9763C13.0887 25.8124 13.1807 25.5905 13.1807 25.3592V20.125C13.1807 19.8929 13.2733 19.6704 13.4381 19.5063C13.6029 19.3422 13.8264 19.25 14.0595 19.25H17.5747C17.8077 19.25 18.0312 19.3422 18.1961 19.5063C18.3609 19.6704 18.4534 19.8929 18.4534 20.125V25.3553C18.4531 25.4705 18.4755 25.5845 18.5195 25.691C18.5636 25.7975 18.6282 25.8943 18.7099 25.9758C18.7915 26.0574 18.8885 26.122 18.9953 26.1662C19.1021 26.2103 19.2166 26.2331 19.3322 26.2331L25.4848 26.25C25.7179 26.25 25.9414 26.1578 26.1062 25.9937C26.271 25.8296 26.3636 25.6071 26.3636 25.375V16.4063L16.2395 8.10798C16.1204 8.01245 15.9722 7.96036 15.8193 7.96036C15.6664 7.96036 15.5181 8.01245 15.3991 8.10798ZM31.3947 13.7523L26.803 9.98376V2.409C26.803 2.23495 26.7336 2.06803 26.61 1.94496C26.4864 1.82189 26.3187 1.75275 26.1439 1.75275H23.0682C22.8934 1.75275 22.7257 1.82189 22.6021 1.94496C22.4785 2.06803 22.4091 2.23495 22.4091 2.409V6.37986L17.4917 2.35157C17.0198 1.96492 16.4277 1.75352 15.8165 1.75352C15.2054 1.75352 14.6132 1.96492 14.1413 2.35157L0.23837 13.7523C0.171631 13.8072 0.116414 13.8747 0.0758755 13.9509C0.035337 14.027 0.0102711 14.1104 0.00211016 14.1963C-0.00605081 14.2821 0.00285302 14.3687 0.0283129 14.4511C0.0537728 14.5335 0.0952898 14.6101 0.150492 14.6765L1.55106 16.3718C1.60611 16.4385 1.67382 16.4936 1.75032 16.5342C1.82682 16.5748 1.91061 16.5999 1.99688 16.6082C2.08314 16.6165 2.17021 16.6077 2.25308 16.5825C2.33595 16.5572 2.413 16.5159 2.47983 16.4609L15.3991 5.86579C15.5181 5.77027 15.6664 5.71818 15.8193 5.71818C15.9722 5.71818 16.1204 5.77027 16.2395 5.86579L29.1593 16.4609C29.226 16.5159 29.3029 16.5573 29.3857 16.5826C29.4684 16.608 29.5554 16.6168 29.6416 16.6087C29.7278 16.6006 29.8115 16.5756 29.8881 16.5352C29.9646 16.4949 30.0323 16.4399 30.0875 16.3734L31.4881 14.6781C31.5432 14.6113 31.5846 14.5343 31.6097 14.4516C31.6349 14.3688 31.6434 14.2819 31.6347 14.1959C31.626 14.1098 31.6003 14.0264 31.5592 13.9502C31.518 13.8741 31.4621 13.8068 31.3947 13.7523Z" fill="#FA4A0C"/>
</g>
<defs>
<clipPath id="clip0">
<rect width="31.6364" height="28" fill="white"/>
</clipPath>
</defs>
</svg>
