<svg width="28" height="28" viewBox="0 0 28 28" fill="none" xmlns="http://www.w3.org/2000/svg">
<path d="M27.1797 14.9297L17.9922 24.1172C17.1719 24.9375 15.75 24.3633 15.75 23.1875V17.9375H8.3125C7.58516 17.9375 7 17.3523 7 16.625V11.375C7 10.6477 7.58516 10.0625 8.3125 10.0625H15.75V4.8125C15.75 3.64219 17.1664 3.0625 17.9922 3.88282L27.1797 13.0703C27.6883 13.5844 27.6883 14.4156 27.1797 14.9297ZM10.5 23.8438V21.6563C10.5 21.2953 10.2047 21 9.84375 21H5.25C4.28203 21 3.5 20.218 3.5 19.25V8.75C3.5 7.78203 4.28203 7 5.25 7H9.84375C10.2047 7 10.5 6.70469 10.5 6.34375V4.15625C10.5 3.79532 10.2047 3.5 9.84375 3.5H5.25C2.35156 3.5 0 5.85157 0 8.75V19.25C0 22.1484 2.35156 24.5 5.25 24.5H9.84375C10.2047 24.5 10.5 24.2047 10.5 23.8438Z" fill="#CBCBCB"/>
</svg>
