<svg width="22" height="28" viewBox="0 0 22 28" fill="none" xmlns="http://www.w3.org/2000/svg">
<g clip-path="url(#clip0)">
<path d="M20.119 12.2412C19.5423 12.2329 18.9657 12.2335 18.389 12.2412C17.8373 12.247 17.5971 12.4238 17.4279 12.9505C17.2882 13.3798 17.1076 13.7866 16.8282 14.1429C16.1932 14.954 15.3545 15.4942 14.4178 15.8729C13.0081 16.4463 11.5402 16.6667 10.0198 16.5975C8.58646 16.5335 7.21273 16.2438 5.94472 15.5595C4.81639 14.9508 3.91039 14.132 3.54325 12.8377C3.42215 12.4097 3.15048 12.2457 2.63918 12.2386C2.11698 12.2316 1.59351 12.2546 1.07195 12.2316C0.559363 12.2085 0.217212 12.4174 0.0166631 12.8794C0.0166631 13.028 -0.00384034 13.1824 0.0275555 13.3279C0.456846 15.2751 0.894466 17.2203 1.32824 19.1669C1.8703 21.6016 2.41749 24.0313 2.94737 26.4667C3.1492 27.3939 3.73291 27.9314 4.68183 28.0013C5.46929 27.9974 6.25675 27.991 7.04421 27.9917C10.2052 27.9917 13.3661 27.9942 16.5271 27.9994C17.4241 27.8385 17.8937 27.2817 18.0789 26.4039C18.414 24.8143 18.7882 23.2336 19.1419 21.6478C19.7595 18.882 20.3749 16.1148 20.9878 13.3465C21.1205 12.7506 20.7271 12.2495 20.119 12.2412Z" fill="#CBCBCB"/>
<path d="M9.06508 14.7369C10.0226 14.8877 10.9979 14.8877 11.9554 14.7369C12.1592 14.7035 12.245 14.6369 12.2444 14.4165C12.2384 10.1936 12.2384 5.97056 12.2444 1.74728C12.2444 1.38014 12.0791 1.0995 11.7658 0.939955C11.118 0.6119 10.458 0.311396 9.8032 0H9.48284C9.01126 0.123021 8.77803 0.396614 8.77803 0.854097C8.77803 5.37596 8.77589 9.89761 8.77162 14.419C8.77098 14.6459 8.86581 14.7067 9.06508 14.7369Z" fill="#CBCBCB"/>
<path d="M4.05456 5.12586C4.47787 7.38081 4.90289 9.63513 5.32961 11.8888C5.4033 12.2732 5.37895 12.7006 5.58591 13.0287C5.90627 13.5329 6.41886 13.8289 6.99039 14.098V13.7117C6.99039 10.0416 6.99189 6.37166 6.99488 2.70197C7.00166 2.06417 6.94001 1.42749 6.81099 0.802838C6.71936 0.370344 6.50279 0.112769 6.09208 0H5.76659C5.53208 0.0570252 5.34371 0.197346 5.15662 0.339588C4.76 0.640733 4.37556 0.966225 3.96357 1.25007C3.55158 1.53391 3.45996 1.91835 3.54261 2.37071C3.70792 3.28888 3.8822 4.20705 4.05456 5.12586Z" fill="#CBCBCB"/>
<path d="M14.0263 13.9462C14.0263 14.0647 14.0718 14.1083 14.1794 14.0436C14.8112 13.6636 15.4384 13.2894 15.714 12.5353C15.9946 11.7664 16.0516 10.9597 16.2003 10.1684C16.5379 8.36347 16.8513 6.5534 17.1518 4.74141C17.2684 4.04045 17.4523 3.34782 17.4888 2.63597C17.5215 2.00741 16.9871 1.60631 16.379 1.77995C15.771 1.95359 15.1745 2.13171 14.5754 2.31688C14.1858 2.4367 14.0263 2.66544 14.0263 3.06718C14.0263 4.84841 14.0263 6.62944 14.0263 8.41024V13.7219C14.0256 13.7969 14.0275 13.8718 14.0263 13.9462Z" fill="#CBCBCB"/>
<path d="M0.755426 9.56677C0.807966 9.85574 0.74133 10.2383 0.963664 10.4068C1.186 10.5753 1.54032 10.4356 1.79662 10.4587C2.23936 10.4548 2.64815 10.4241 3.04284 10.5227C3.28888 10.5868 3.29209 10.4811 3.25877 10.303L2.24257 4.9253C2.22014 4.80677 2.18426 4.71194 2.03881 4.67542C1.73959 4.60045 1.44934 4.49153 1.15332 4.41464C0.448516 4.23203 -0.105077 4.71835 0.017303 5.42956C0.253947 6.81055 0.499988 8.18962 0.755426 9.56677Z" fill="#CBCBCB"/>
<path d="M18.1327 10.5041C18.4704 10.4208 18.8119 10.4766 19.1009 10.4567C19.3745 10.4567 19.6 10.4375 19.821 10.4619C20.0613 10.4888 20.1369 10.3728 20.1728 10.1671C20.447 8.60052 20.7328 7.03586 21 5.46798C21.1281 4.72345 20.5745 4.23586 19.8371 4.42231C19.6211 4.47741 19.4123 4.56455 19.1963 4.60364C19.0041 4.63824 18.9323 4.74908 18.9022 4.924C18.5921 6.71805 18.2833 8.51723 17.9648 10.3119C17.9302 10.4817 17.9796 10.5413 18.1327 10.5041Z" fill="#CBCBCB"/>
</g>
<defs>
<clipPath id="clip0">
<rect width="21.0167" height="28" fill="white"/>
</clipPath>
</defs>
</svg>
