<svg width="25" height="28" viewBox="0 0 25 28" fill="none" xmlns="http://www.w3.org/2000/svg">
<g clip-path="url(#clip0)">
<path d="M12.25 14C16.1164 14 19.25 10.8664 19.25 7C19.25 3.13359 16.1164 0 12.25 0C8.38359 0 5.25 3.13359 5.25 7C5.25 10.8664 8.38359 14 12.25 14ZM17.15 15.75H16.2367C15.0227 16.3078 13.6719 16.625 12.25 16.625C10.8281 16.625 9.48281 16.3078 8.26328 15.75H7.35C3.29219 15.75 0 19.0422 0 23.1V25.375C0 26.8242 1.17578 28 2.625 28H21.875C23.3242 28 24.5 26.8242 24.5 25.375V23.1C24.5 19.0422 21.2078 15.75 17.15 15.75Z" fill="#CBCBCB"/>
</g>
<defs>
<clipPath id="clip0">
<rect width="24.5" height="28" fill="white"/>
</clipPath>
</defs>
</svg>
